<svg width="12" height="8" viewBox="0 0 12 8" fill="none" xmlns="http://www.w3.org/2000/svg">
<path d="M1.27057 0.908489C1.07793 0.970278 0.914369 1.10113 0.812597 1.26832C0.67448 1.50821 0.670845 1.8426 0.812597 2.07522C0.936177 2.2824 5.61038 6.94933 5.78484 7.0402C5.98839 7.1456 6.34458 7.1347 6.54813 7.01112C6.7553 6.89118 11.4222 2.21334 11.5131 2.03888C11.5567 1.95528 11.5785 1.8317 11.5822 1.67541C11.5822 1.48277 11.564 1.41008 11.4804 1.26832C11.335 1.01753 11.1097 0.89395 10.8007 0.89395C10.6444 0.897585 10.5208 0.919393 10.4372 0.963009C10.3682 0.999356 9.37228 1.96255 8.23099 3.10384L6.14831 5.18288L4.06927 3.10384C2.92435 1.96255 1.93208 0.999356 1.86302 0.966644C1.72127 0.89395 1.40869 0.864872 1.27057 0.908489Z" fill="black"/>
</svg>
