<svg width="428" height="926" viewBox="0 0 428 926" fill="none" xmlns="http://www.w3.org/2000/svg">
<g clip-path="url(#clip0_16_808)">
<rect width="2428" height="1926" fill="white"/>
<path d="M46.3809 26.6069C43.7993 26.6069 41.8984 28.3418 41.8984 30.7573V30.7739C41.8984 33.0234 43.5254 34.6836 45.833 34.6836C47.4517 34.6836 48.647 33.8535 49.1201 32.7578H49.1699C49.1699 32.8906 49.1616 33.0151 49.1533 33.1396C49.0703 35.4058 48.2651 37.2485 46.3394 37.2485C45.2686 37.2485 44.5381 36.7173 44.2144 35.8955L44.1895 35.8208H42.0645L42.0811 35.9121C42.4546 37.7217 44.1147 39 46.3311 39C49.3857 39 51.2202 36.6343 51.2202 32.6748V32.6582C51.2202 28.458 49.0205 26.6069 46.3809 26.6069ZM46.3809 33.0317C45.0195 33.0317 44.0068 32.0605 44.0068 30.6992V30.6826C44.0068 29.3877 45.0776 28.3584 46.4058 28.3584C47.7505 28.3584 48.7964 29.396 48.7964 30.7241V30.7324C48.7964 32.0688 47.7505 33.0317 46.3809 33.0317Z" fill="#1E1E1E"/>
<path d="M54.5731 30.9565C55.2454 30.9565 55.7684 30.4253 55.7684 29.7529C55.7684 29.0806 55.2454 28.5576 54.5731 28.5576C53.9007 28.5576 53.3695 29.0806 53.3695 29.7529C53.3695 30.4253 53.9007 30.9565 54.5731 30.9565ZM54.5731 37.0493C55.2454 37.0493 55.7684 36.5181 55.7684 35.8457C55.7684 35.1733 55.2454 34.6504 54.5731 34.6504C53.9007 34.6504 53.3695 35.1733 53.3695 35.8457C53.3695 36.5181 53.9007 37.0493 54.5731 37.0493Z" fill="#1E1E1E"/>
<path d="M63.8112 38.7925H65.8532V36.4932H67.4801V34.7334H65.8532V26.8145H62.8068L57.8346 34.667V36.4932H63.8112V38.7925ZM59.7604 34.7832V34.7251L63.7946 28.4331H63.8444V34.7832H59.7604Z" fill="#1E1E1E"/>
<path d="M72.5014 38.7925H74.6015V26.8145H72.4848L69.3554 29.0142V30.9814L72.4516 28.8564H72.5014V38.7925Z" fill="#1E1E1E"/>
<path fill-rule="evenodd" clip-rule="evenodd" d="M321.602 25C320.773 25 320.102 25.6716 320.102 26.5V37.5C320.102 38.3284 320.773 39 321.602 39C322.43 39 323.102 38.3284 323.102 37.5V26.5C323.102 25.6716 322.43 25 321.602 25ZM314.602 29.5C314.602 28.6716 315.273 28 316.102 28C316.93 28 317.602 28.6716 317.602 29.5V37.5C317.602 38.3284 316.93 39 316.102 39C315.273 39 314.602 38.3284 314.602 37.5V29.5ZM310.602 32C309.773 32 309.102 32.6716 309.102 33.5V37.5C309.102 38.3284 309.773 39 310.602 39C311.43 39 312.102 38.3284 312.102 37.5V33.5C312.102 32.6716 311.43 32 310.602 32ZM305.102 34C304.273 34 303.602 34.6716 303.602 35.5V37.5C303.602 38.3284 304.273 39 305.102 39C305.93 39 306.602 38.3284 306.602 37.5V35.5C306.602 34.6716 305.93 34 305.102 34Z" fill="#1E1E1E"/>
<path fill-rule="evenodd" clip-rule="evenodd" d="M350.843 29.2594C351.028 29.0549 351.013 28.7379 350.803 28.5593C348.115 26.2799 344.705 25.0162 341.17 25.0002C337.635 24.9841 334.213 26.2169 331.505 28.4719C331.292 28.6486 331.275 28.9654 331.458 29.1716L332.954 30.8514C333.138 31.0576 333.453 31.075 333.667 30.9003C335.776 29.1776 338.422 28.2371 341.155 28.2495C343.888 28.2618 346.526 29.2263 348.618 30.968C348.831 31.1446 349.146 31.1301 349.332 30.9256L350.843 29.2594ZM347.112 32.6896C347.307 32.4943 347.308 32.1766 347.103 31.9924C345.457 30.5201 343.322 29.7 341.102 29.7C338.882 29.7 336.747 30.5201 335.101 31.9924C334.895 32.1766 334.896 32.4943 335.091 32.6896L336.329 33.927C336.524 34.1223 336.839 34.1205 337.05 33.9415C338.176 32.9823 339.612 32.45 341.102 32.45C342.592 32.45 344.028 32.9823 345.154 33.9415C345.364 34.1205 345.68 34.1223 345.875 33.927L347.112 32.6896ZM341.102 34C342.26 34 343.378 34.4021 344.267 35.1291C344.48 35.3039 344.479 35.6228 344.284 35.818L341.455 38.6464C341.26 38.8417 340.943 38.8417 340.748 38.6464L337.92 35.818C337.724 35.6228 337.723 35.3039 337.937 35.1291C338.826 34.4021 339.943 34 341.102 34Z" fill="#1E1E1E"/>
<path fill-rule="evenodd" clip-rule="evenodd" d="M362.102 26H382.102C383.758 26 385.102 27.3431 385.102 29V36C385.102 37.6569 383.758 39 382.102 39H362.102C360.445 39 359.102 37.6569 359.102 36V29C359.102 27.3431 360.445 26 362.102 26ZM362.102 27C360.997 27 360.102 27.8954 360.102 29V36C360.102 37.1046 360.997 38 362.102 38H382.102C383.206 38 384.102 37.1046 384.102 36V29C384.102 27.8954 383.206 27 382.102 27H362.102ZM361.102 30C361.102 28.8954 361.997 28 363.102 28H381.102C382.206 28 383.102 28.8954 383.102 30V35C383.102 36.1046 382.206 37 381.102 37H363.102C361.997 37 361.102 36.1046 361.102 35V30ZM388.102 32.5C388.102 33.8807 387.206 35 386.102 35V30C387.206 30 388.102 31.1193 388.102 32.5Z" fill="#1E1E1E"/>
<path d="M0 0H428V475.815C428 522.526 383.121 556.133 338.298 542.986L50.2981 458.511C20.4824 449.766 0 422.413 0 391.341V0Z" fill="#846046"/>
</g>
<defs>
<clipPath id="clip0_16_808">
<rect width="428" height="926" fill="white"/>
</clipPath>
</defs>
</svg>
